<mxfile host="app.diagrams.net" agent="Mozilla/5.0 (Windows NT 10.0; Win64; x64) AppleWebKit/537.36 (KHTML, like Gecko) Chrome/134.0.0.0 Safari/537.36" version="26.2.8">
  <diagram name="StrÃ¡nka-1" id="sB15CIVNRGx2--mdZV0Z">
    <mxGraphModel dx="1428" dy="743" grid="1" gridSize="10" guides="1" tooltips="1" connect="1" arrows="1" fold="1" page="1" pageScale="1" pageWidth="827" pageHeight="1169" math="0" shadow="0">
      <root>
        <mxCell id="0" />
        <mxCell id="1" parent="0" />
        <mxCell id="Rf60i1dbhW8auX6KLezp-2" value="" style="strokeWidth=1;shadow=0;dashed=0;align=center;html=1;shape=mxgraph.mockup.containers.browserWindow;rSize=0;strokeColor=#666666;strokeColor2=#008cff;strokeColor3=#c4c4c4;mainText=,;recursiveResize=0;" vertex="1" parent="1">
          <mxGeometry x="210" y="70" width="890" height="660" as="geometry" />
        </mxCell>
        <mxCell id="Rf60i1dbhW8auX6KLezp-3" value="Page 1" style="strokeWidth=1;shadow=0;dashed=0;align=center;html=1;shape=mxgraph.mockup.containers.anchor;fontSize=17;fontColor=#666666;align=left;whiteSpace=wrap;" vertex="1" parent="Rf60i1dbhW8auX6KLezp-2">
          <mxGeometry x="60" y="12" width="110" height="26" as="geometry" />
        </mxCell>
        <mxCell id="Rf60i1dbhW8auX6KLezp-4" value="https://www.propositonalsolver&lt;span style=&quot;background-color: transparent; color: light-dark(rgb(102, 102, 102), rgb(149, 149, 149));&quot;&gt;.cz&lt;/span&gt;" style="strokeWidth=1;shadow=0;dashed=0;align=center;html=1;shape=mxgraph.mockup.containers.anchor;rSize=0;fontSize=17;fontColor=#666666;align=left;" vertex="1" parent="Rf60i1dbhW8auX6KLezp-2">
          <mxGeometry x="130" y="60" width="250" height="26" as="geometry" />
        </mxCell>
        <mxCell id="Rf60i1dbhW8auX6KLezp-17" value="" style="rounded=1;whiteSpace=wrap;html=1;" vertex="1" parent="Rf60i1dbhW8auX6KLezp-2">
          <mxGeometry x="200" y="191.25" width="490" height="277.5" as="geometry" />
        </mxCell>
        <mxCell id="Rf60i1dbhW8auX6KLezp-5" value="********" style="strokeWidth=1;shadow=0;dashed=0;align=center;html=1;shape=mxgraph.mockup.forms.pwField;strokeColor=#999999;mainText=;align=left;fontColor=#666666;fontSize=17;spacingLeft=3;" vertex="1" parent="Rf60i1dbhW8auX6KLezp-2">
          <mxGeometry x="351.25" y="361.25" width="198.75" height="30" as="geometry" />
        </mxCell>
        <mxCell id="Rf60i1dbhW8auX6KLezp-6" value="" style="strokeWidth=1;shadow=0;dashed=0;align=center;html=1;shape=mxgraph.mockup.forms.pwField;strokeColor=#999999;mainText=;align=left;fontColor=#666666;fontSize=17;spacingLeft=3;" vertex="1" parent="Rf60i1dbhW8auX6KLezp-2">
          <mxGeometry x="351.25" y="281.25" width="197.5" height="30" as="geometry" />
        </mxCell>
        <mxCell id="Rf60i1dbhW8auX6KLezp-7" value="Login" style="strokeWidth=1;shadow=0;dashed=0;align=center;html=1;shape=mxgraph.mockup.buttons.button;strokeColor=#666666;fontColor=#ffffff;mainText=;buttonStyle=round;fontSize=17;fontStyle=1;fillColor=#008cff;whiteSpace=wrap;" vertex="1" parent="Rf60i1dbhW8auX6KLezp-2">
          <mxGeometry x="351.25" y="411.25" width="198.75" height="30" as="geometry" />
        </mxCell>
        <mxCell id="Rf60i1dbhW8auX6KLezp-8" value="&lt;span style=&quot;color: rgb(102, 102, 102); font-size: 17px; text-align: left;&quot;&gt;Username&lt;/span&gt;" style="text;html=1;align=center;verticalAlign=middle;resizable=0;points=[];autosize=1;strokeColor=none;fillColor=none;" vertex="1" parent="Rf60i1dbhW8auX6KLezp-2">
          <mxGeometry x="350" y="251.25" width="100" height="30" as="geometry" />
        </mxCell>
        <mxCell id="Rf60i1dbhW8auX6KLezp-16" value="&lt;div style=&quot;text-align: left;&quot;&gt;&lt;span style=&quot;background-color: transparent; font-size: 17px;&quot;&gt;&lt;font color=&quot;#666666&quot;&gt;Password&lt;/font&gt;&lt;/span&gt;&lt;/div&gt;" style="text;html=1;align=center;verticalAlign=middle;resizable=0;points=[];autosize=1;strokeColor=none;fillColor=none;" vertex="1" parent="Rf60i1dbhW8auX6KLezp-2">
          <mxGeometry x="351.25" y="331.25" width="100" height="30" as="geometry" />
        </mxCell>
        <mxCell id="Rf60i1dbhW8auX6KLezp-18" value="" style="rounded=0;whiteSpace=wrap;html=1;" vertex="1" parent="Rf60i1dbhW8auX6KLezp-2">
          <mxGeometry y="110" width="890" height="40" as="geometry" />
        </mxCell>
        <mxCell id="Rf60i1dbhW8auX6KLezp-22" value="Register" style="strokeWidth=1;shadow=0;dashed=0;align=center;html=1;shape=mxgraph.mockup.buttons.button;strokeColor=#666666;fontColor=#ffffff;mainText=;buttonStyle=round;fontSize=17;fontStyle=1;fillColor=#008cff;whiteSpace=wrap;" vertex="1" parent="Rf60i1dbhW8auX6KLezp-2">
          <mxGeometry x="790" y="115" width="90" height="30" as="geometry" />
        </mxCell>
        <mxCell id="Rf60i1dbhW8auX6KLezp-23" value="" style="rounded=0;whiteSpace=wrap;html=1;labelBackgroundColor=#E6E6E6;" vertex="1" parent="Rf60i1dbhW8auX6KLezp-2">
          <mxGeometry y="110" width="100" height="40" as="geometry" />
        </mxCell>
        <mxCell id="Rf60i1dbhW8auX6KLezp-19" value="Logo" style="text;html=1;align=center;verticalAlign=middle;resizable=0;points=[];autosize=1;strokeColor=none;fillColor=none;labelBackgroundColor=none;fontSize=25;" vertex="1" parent="Rf60i1dbhW8auX6KLezp-2">
          <mxGeometry x="10" y="110" width="80" height="40" as="geometry" />
        </mxCell>
        <mxCell id="Rf60i1dbhW8auX6KLezp-24" value="&lt;font style=&quot;font-size: 22px;&quot;&gt;&lt;b&gt;Log In&lt;/b&gt;&lt;/font&gt;" style="text;html=1;align=center;verticalAlign=middle;resizable=0;points=[];autosize=1;strokeColor=none;fillColor=none;" vertex="1" parent="Rf60i1dbhW8auX6KLezp-2">
          <mxGeometry x="400" y="211.25" width="90" height="40" as="geometry" />
        </mxCell>
      </root>
    </mxGraphModel>
  </diagram>
</mxfile>
